# Blender 3.5.1
# www.blender.org
mtllib Plane.mtl
o Plane
v 0.199285 0.000000 0.400351
v 0.199555 0.000000 0.200410
v -0.000752 0.000000 0.400075
v -0.200952 0.000000 0.599836
v -0.201051 0.000000 0.799916
v -0.000984 0.000000 0.600059
v -0.599807 0.000000 -0.200971
v -0.799897 0.000000 -0.201130
v -0.600031 0.000000 -0.001002
v 0.200933 0.000000 -0.599750
v 0.201096 0.000000 -0.799869
v 0.000999 0.000000 -0.599982
v -0.400349 0.000000 0.199335
v -0.200421 0.000000 0.199705
v -0.400054 0.000000 -0.000719
v 0.000278 0.000000 -0.199952
v 0.200241 0.000000 -0.199595
v 0.000662 0.000000 -0.399969
v -0.199352 0.000000 -0.400296
v -0.199714 0.000000 -0.200332
v -0.600246 0.000000 0.199060
v 0.599710 0.000000 0.200883
v 0.799846 0.000000 0.200955
v 0.599900 0.000000 0.000969
v -0.000455 0.000000 0.200076
v -0.000105 0.000000 0.000065
v 0.200608 0.000000 -0.399656
v -0.200717 0.000000 0.399763
v -0.201080 0.000000 1.000000
v -0.400935 0.000000 1.000000
v -1.000000 0.000000 -0.201179
v -1.000000 0.000000 -0.401023
v -0.399743 0.000000 -0.200703
v 0.201147 0.000000 -1.000000
v 0.400957 0.000000 -1.000000
v 0.799944 0.000000 0.001062
v 0.800057 0.000000 -0.198932
v 0.600119 0.000000 -0.199038
v 0.600345 0.000000 -0.399144
v -0.599588 0.000000 -0.400841
v 0.399878 0.000000 0.000736
v -0.600594 0.000000 0.599430
v -0.400818 0.000000 0.599607
v -0.600438 0.000000 0.399209
v 0.399610 0.000000 0.200684
v 0.399391 0.000000 0.400570
v 0.400183 0.000000 -0.199283
v -0.400608 0.000000 0.399447
v -0.399437 0.000000 -0.400614
v -0.599395 0.000000 -0.600620
v -0.399170 0.000000 -0.600453
v 0.800174 0.000000 -0.399035
v 1.000000 0.000000 -0.398995
v 0.800274 0.000000 -0.599245
v -0.800229 0.000000 0.399062
v -1.000000 0.000000 0.399014
v -0.800311 0.000000 0.599316
v 0.399146 0.000000 0.800204
v 0.399116 0.000000 1.000000
v 0.599362 0.000000 0.800245
v -0.600663 0.000000 0.799701
v -0.600684 0.000000 1.000000
v -0.400908 0.000000 0.799798
v 0.599556 0.000000 0.400719
v -0.001082 0.000000 0.800031
v -0.001111 0.000000 1.000000
v -0.800014 0.000000 -0.001172
v -1.000000 0.000000 -0.001225
v 0.001168 0.000000 -0.799991
v 0.001221 0.000000 -1.000000
v -0.599295 0.000000 -0.800330
v -0.399036 0.000000 -0.800239
v -0.799783 0.000000 -0.400978
v -0.799680 0.000000 -0.600726
v 0.400916 0.000000 -0.799753
v 0.400776 0.000000 -0.599536
v 0.600641 0.000000 -0.799643
v 0.399224 0.000000 0.600402
v 0.199078 0.000000 0.600253
v 0.198990 0.000000 0.800131
v -0.800127 0.000000 0.198894
v -0.198876 0.000000 -0.800117
v 0.600545 0.000000 -0.599351
v 0.800309 0.000000 -0.799545
v -0.799619 0.000000 -0.800399
v -0.800348 0.000000 0.799630
v 0.799695 0.000000 0.600514
v 0.599435 0.000000 0.600497
v 0.799619 0.000000 0.800234
v -0.199035 0.000000 -0.600221
v 0.400497 0.000000 -0.399375
v 1.000000 0.000000 0.001088
v 1.000000 0.000000 -0.198899
v 0.799766 0.000000 0.400765
v 1.000000 0.000000 0.400773
v -0.599256 0.000000 -1.000000
v -0.198826 0.000000 -1.000000
v -1.000000 0.000000 0.198842
v 0.198963 0.000000 1.000000
v 1.000000 0.000000 0.600501
v 0.600659 0.000000 -1.000000
v -1.000000 0.000000 -0.600772
v -0.398993 0.000000 -1.000000
v 1.000000 0.000000 -0.799364
v 0.999703 0.000000 -0.999244
v -0.799563 0.000000 -1.000000
v -0.999819 0.000000 -1.000281
v -1.000000 0.000000 0.799563
v -1.000000 0.000000 0.999777
v 0.799448 0.000000 1.000000
v 0.999264 0.000000 0.999613
v 1.000000 0.000000 0.200973
v 0.199879 0.000000 0.000428
v -0.200080 0.000000 -0.000329
v 0.599308 0.000000 1.000000
v -1.000000 0.000000 0.599271
v 1.000000 0.000000 -0.599180
v 0.800261 0.000000 -0.999993
v -1.000001 0.000000 -0.800478
v -0.800360 0.000000 1.000000
v 0.999997 0.000000 0.800151
vn -0.0000 1.0000 -0.0000
s 0
f 3//1 2//1 25//1
f 25//1 113//1 26//1
f 113//1 45//1 41//1
f 1//1 45//1 2//1
f 3//1 4//1 6//1
f 28//1 25//1 14//1
f 6//1 1//1 3//1
f 28//1 43//1 4//1
f 6//1 5//1 65//1
f 30//1 5//1 63//1
f 4//1 63//1 5//1
f 65//1 29//1 66//1
f 65//1 79//1 6//1
f 9//1 8//1 67//1
f 32//1 8//1 73//1
f 7//1 73//1 8//1
f 67//1 31//1 68//1
f 21//1 15//1 9//1
f 9//1 33//1 7//1
f 9//1 81//1 21//1
f 27//1 12//1 18//1
f 10//1 91//1 76//1
f 12//1 11//1 69//1
f 35//1 11//1 75//1
f 69//1 34//1 70//1
f 10//1 75//1 11//1
f 69//1 90//1 12//1
f 44//1 13//1 21//1
f 13//1 114//1 15//1
f 14//1 26//1 114//1
f 48//1 14//1 13//1
f 20//1 15//1 114//1
f 18//1 17//1 27//1
f 16//1 113//1 17//1
f 17//1 41//1 47//1
f 27//1 47//1 91//1
f 19//1 16//1 18//1
f 18//1 90//1 19//1
f 114//1 16//1 20//1
f 33//1 19//1 49//1
f 41//1 22//1 24//1
f 64//1 45//1 46//1
f 24//1 23//1 36//1
f 22//1 94//1 23//1
f 112//1 36//1 23//1
f 23//1 95//1 112//1
f 36//1 38//1 24//1
f 73//1 102//1 32//1
f 40//1 33//1 49//1
f 75//1 101//1 35//1
f 39//1 37//1 52//1
f 52//1 93//1 53//1
f 37//1 92//1 93//1
f 24//1 47//1 41//1
f 38//1 91//1 47//1
f 83//1 52//1 54//1
f 50//1 49//1 51//1
f 74//1 40//1 50//1
f 43//1 61//1 63//1
f 86//1 42//1 57//1
f 42//1 48//1 44//1
f 57//1 44//1 55//1
f 55//1 21//1 81//1
f 78//1 1//1 79//1
f 88//1 46//1 78//1
f 51//1 19//1 90//1
f 72//1 50//1 51//1
f 74//1 71//1 85//1
f 82//1 51//1 90//1
f 52//1 117//1 54//1
f 55//1 116//1 57//1
f 55//1 98//1 56//1
f 58//1 115//1 60//1
f 58//1 99//1 59//1
f 60//1 78//1 58//1
f 63//1 62//1 30//1
f 61//1 120//1 62//1
f 87//1 64//1 88//1
f 80//1 66//1 99//1
f 81//1 68//1 98//1
f 82//1 70//1 97//1
f 71//1 103//1 96//1
f 77//1 76//1 83//1
f 80//1 78//1 79//1
f 72//1 97//1 103//1
f 84//1 83//1 54//1
f 76//1 39//1 83//1
f 77//1 118//1 101//1
f 84//1 105//1 118//1
f 54//1 104//1 84//1
f 71//1 106//1 85//1
f 102//1 85//1 119//1
f 106//1 119//1 85//1
f 86//1 109//1 120//1
f 57//1 108//1 86//1
f 94//1 100//1 95//1
f 89//1 88//1 60//1
f 87//1 121//1 100//1
f 89//1 111//1 121//1
f 60//1 110//1 89//1
f 3//1 1//1 2//1
f 25//1 2//1 113//1
f 113//1 2//1 45//1
f 1//1 46//1 45//1
f 3//1 28//1 4//1
f 28//1 3//1 25//1
f 6//1 79//1 1//1
f 28//1 48//1 43//1
f 6//1 4//1 5//1
f 30//1 29//1 5//1
f 4//1 43//1 63//1
f 65//1 5//1 29//1
f 65//1 80//1 79//1
f 9//1 7//1 8//1
f 32//1 31//1 8//1
f 7//1 40//1 73//1
f 67//1 8//1 31//1
f 21//1 13//1 15//1
f 9//1 15//1 33//1
f 9//1 67//1 81//1
f 27//1 10//1 12//1
f 10//1 27//1 91//1
f 12//1 10//1 11//1
f 35//1 34//1 11//1
f 69//1 11//1 34//1
f 10//1 76//1 75//1
f 69//1 82//1 90//1
f 44//1 48//1 13//1
f 13//1 14//1 114//1
f 14//1 25//1 26//1
f 48//1 28//1 14//1
f 20//1 33//1 15//1
f 18//1 16//1 17//1
f 16//1 26//1 113//1
f 17//1 113//1 41//1
f 27//1 17//1 47//1
f 19//1 20//1 16//1
f 18//1 12//1 90//1
f 114//1 26//1 16//1
f 33//1 20//1 19//1
f 41//1 45//1 22//1
f 64//1 22//1 45//1
f 24//1 22//1 23//1
f 22//1 64//1 94//1
f 112//1 92//1 36//1
f 23//1 94//1 95//1
f 36//1 37//1 38//1
f 73//1 74//1 102//1
f 40//1 7//1 33//1
f 75//1 77//1 101//1
f 39//1 38//1 37//1
f 52//1 37//1 93//1
f 37//1 36//1 92//1
f 24//1 38//1 47//1
f 38//1 39//1 91//1
f 83//1 39//1 52//1
f 50//1 40//1 49//1
f 74//1 73//1 40//1
f 43//1 42//1 61//1
f 86//1 61//1 42//1
f 42//1 43//1 48//1
f 57//1 42//1 44//1
f 55//1 44//1 21//1
f 78//1 46//1 1//1
f 88//1 64//1 46//1
f 51//1 49//1 19//1
f 72//1 71//1 50//1
f 74//1 50//1 71//1
f 82//1 72//1 51//1
f 52//1 53//1 117//1
f 55//1 56//1 116//1
f 55//1 81//1 98//1
f 58//1 59//1 115//1
f 58//1 80//1 99//1
f 60//1 88//1 78//1
f 63//1 61//1 62//1
f 61//1 86//1 120//1
f 87//1 94//1 64//1
f 80//1 65//1 66//1
f 81//1 67//1 68//1
f 82//1 69//1 70//1
f 71//1 72//1 103//1
f 77//1 75//1 76//1
f 80//1 58//1 78//1
f 72//1 82//1 97//1
f 84//1 77//1 83//1
f 76//1 91//1 39//1
f 77//1 84//1 118//1
f 84//1 104//1 105//1
f 54//1 117//1 104//1
f 71//1 96//1 106//1
f 102//1 74//1 85//1
f 106//1 107//1 119//1
f 86//1 108//1 109//1
f 57//1 116//1 108//1
f 94//1 87//1 100//1
f 89//1 87//1 88//1
f 87//1 89//1 121//1
f 89//1 110//1 111//1
f 60//1 115//1 110//1
